<svg width="35" height="35" viewBox="0 0 35 35" fill="none" xmlns="http://www.w3.org/2000/svg">
<path d="M19.5566 17.5L28.7441 8.32708C29.0187 8.05247 29.173 7.68002 29.173 7.29166C29.173 6.90331 29.0187 6.53086 28.7441 6.25625C28.4695 5.98164 28.097 5.82736 27.7087 5.82736C27.3203 5.82736 26.9478 5.98164 26.6732 6.25625L17.5003 15.4437L8.3274 6.25625C8.05279 5.98164 7.68034 5.82736 7.29198 5.82736C6.90363 5.82736 6.53118 5.98164 6.25657 6.25625C5.98196 6.53086 5.82768 6.90331 5.82768 7.29166C5.82768 7.68002 5.98196 8.05247 6.25657 8.32708L15.4441 17.5L6.25657 26.6729C6.11988 26.8085 6.01139 26.9698 5.93735 27.1475C5.86331 27.3252 5.8252 27.5158 5.8252 27.7083C5.8252 27.9008 5.86331 28.0915 5.93735 28.2692C6.01139 28.4469 6.11988 28.6082 6.25657 28.7437C6.39214 28.8804 6.55343 28.9889 6.73114 29.063C6.90885 29.137 7.09947 29.1751 7.29198 29.1751C7.4845 29.1751 7.67511 29.137 7.85283 29.063C8.03054 28.9889 8.19183 28.8804 8.3274 28.7437L17.5003 19.5562L26.6732 28.7437C26.8088 28.8804 26.9701 28.9889 27.1478 29.063C27.3255 29.137 27.5161 29.1751 27.7087 29.1751C27.9012 29.1751 28.0918 29.137 28.2695 29.063C28.4472 28.9889 28.6085 28.8804 28.7441 28.7437C28.8808 28.6082 28.9892 28.4469 29.0633 28.2692C29.1373 28.0915 29.1754 27.9008 29.1754 27.7083C29.1754 27.5158 29.1373 27.3252 29.0633 27.1475C28.9892 26.9698 28.8808 26.8085 28.7441 26.6729L19.5566 17.5Z" fill="#0562A7"/>
</svg>
