<svg width="30" height="30" viewBox="0 0 38 37" fill="none" xmlns="http://www.w3.org/2000/svg">
<path d="M28.7373 14.0982L28.2623 28.0969C28.2218 29.2958 27.7031 30.4321 26.8162 31.2648C25.9294 32.0974 24.7442 32.5608 23.5123 32.5565H14.4873C13.2561 32.5608 12.0716 32.0981 11.1849 31.2664C10.2982 30.4348 9.77893 29.2996 9.73726 28.1015L9.26226 14.0982C9.25186 13.7915 9.36701 13.4934 9.58236 13.2694C9.79771 13.0454 10.0956 12.9139 10.4106 12.9037C10.7255 12.8936 11.0317 13.0057 11.2617 13.2154C11.4918 13.4251 11.6269 13.7152 11.6373 14.0218L12.1123 28.024C12.1359 28.6218 12.3965 29.1874 12.8394 29.602C13.2823 30.0166 13.8729 30.2479 14.4873 30.2475H23.5123C24.1274 30.2479 24.7187 30.0159 25.1617 29.6003C25.6047 29.1847 25.8648 28.618 25.8873 28.0194L26.3623 14.0218C26.3727 13.7152 26.5077 13.4251 26.7378 13.2154C26.9678 13.0057 27.274 12.8936 27.5889 12.9037C27.9039 12.9139 28.2018 13.0454 28.4172 13.2694C28.6325 13.4934 28.7476 13.7915 28.7373 14.0982ZM30.3083 9.43962C30.3083 9.74628 30.1832 10.0404 29.9605 10.2572C29.7378 10.4741 29.4358 10.5959 29.1208 10.5959H8.87988C8.56494 10.5959 8.26289 10.4741 8.04019 10.2572C7.81749 10.0404 7.69238 9.74628 7.69238 9.43962C7.69238 9.13297 7.81749 8.83887 8.04019 8.62203C8.26289 8.40519 8.56494 8.28337 8.87988 8.28337H12.5611C12.9374 8.28436 13.3006 8.14901 13.58 7.90366C13.8594 7.65831 14.0351 7.32051 14.0728 6.956C14.1604 6.10093 14.5719 5.30826 15.2269 4.73242C15.882 4.15658 16.7338 3.83883 17.6163 3.84106H20.3832C21.2657 3.83883 22.1175 4.15658 22.7726 4.73242C23.4276 5.30826 23.8391 6.10093 23.9267 6.956C23.9644 7.32051 24.1401 7.65831 24.4195 7.90366C24.6989 8.14901 25.0621 8.28436 25.4384 8.28337H29.1196C29.4346 8.28337 29.7366 8.40519 29.9593 8.62203C30.182 8.83887 30.3071 9.13297 30.3071 9.43962H30.3083ZM16.1343 8.28337H21.8676C21.7115 7.9362 21.6095 7.56833 21.5648 7.19187C21.5353 6.90687 21.3983 6.64264 21.1802 6.45038C20.9622 6.25813 20.6786 6.15153 20.3844 6.15125H17.6175C17.3233 6.15153 17.0397 6.25813 16.8216 6.45038C16.6036 6.64264 16.4665 6.90687 16.4371 7.19187C16.392 7.56839 16.2908 7.93626 16.1343 8.28337ZM17.3301 25.8017V15.9562C17.3301 15.6496 17.205 15.3555 16.9823 15.1387C16.7596 14.9218 16.4576 14.8 16.1426 14.8C15.8277 14.8 15.5256 14.9218 15.3029 15.1387C15.0802 15.3555 14.9551 15.6496 14.9551 15.9562V25.8063C14.9551 26.113 15.0802 26.4071 15.3029 26.6239C15.5256 26.8408 15.8277 26.9626 16.1426 26.9626C16.4576 26.9626 16.7596 26.8408 16.9823 26.6239C17.205 26.4071 17.3301 26.113 17.3301 25.8063V25.8017ZM23.0468 25.8017V15.9562C23.0468 15.6496 22.9216 15.3555 22.6989 15.1387C22.4762 14.9218 22.1742 14.8 21.8593 14.8C21.5443 14.8 21.2423 14.9218 21.0196 15.1387C20.7969 15.3555 20.6718 15.6496 20.6718 15.9562V25.8063C20.6718 26.113 20.7969 26.4071 21.0196 26.6239C21.2423 26.8408 21.5443 26.9626 21.8593 26.9626C22.1742 26.9626 22.4762 26.8408 22.6989 26.6239C22.9216 26.4071 23.0468 26.113 23.0468 25.8063V25.8017Z" fill="#8B9399"/>
</svg>
