<svg width="50" height="50" viewBox="0 0 50 50" fill="none" xmlns="http://www.w3.org/2000/svg">
<g clip-path="url(#clip0_5_2)">
<path d="M35.1562 1.40625L17.7342 18.8269C15.8432 18.2536 13.8442 18.1311 11.8974 18.4691C9.95053 18.8072 8.10987 19.5964 6.52279 20.7735C4.93571 21.9507 3.6463 23.4831 2.75782 25.2481C1.86933 27.013 1.40646 28.9615 1.40625 30.9375C1.40625 34.2941 2.73967 37.5133 5.11318 39.8868C7.48669 42.2603 10.7059 43.5938 14.0625 43.5938C16.0385 43.5934 17.987 43.1303 19.752 42.2417C21.5169 41.353 23.0492 40.0635 24.2262 38.4762C25.4033 36.889 26.1923 35.0482 26.5301 33.1013C26.8679 31.1543 26.7452 29.1554 26.1717 27.2644L29.5312 23.9062V21.0938H32.3438L43.5938 9.84375V1.40625H35.1562ZM40.7812 8.67797L31.1794 18.2812H26.7188V22.7405L24.1833 25.2745L22.9908 26.467L23.4802 28.08C23.7628 29.0109 23.9062 29.9714 23.9062 30.9375C23.9062 36.3656 19.4892 40.7812 14.0625 40.7812C8.63578 40.7812 4.21875 36.3656 4.21875 30.9375C4.21875 25.5094 8.63578 21.0938 14.0625 21.0938C15.0272 21.0938 15.9891 21.2372 16.9186 21.5184L18.5302 22.0078L19.7227 20.8153L36.3206 4.21875H40.7812V8.67797Z" fill="#8B9399"/>
<path d="M11.25 36.5625C12.8033 36.5625 14.0625 35.3033 14.0625 33.75C14.0625 32.1967 12.8033 30.9375 11.25 30.9375C9.6967 30.9375 8.4375 32.1967 8.4375 33.75C8.4375 35.3033 9.6967 36.5625 11.25 36.5625Z" fill="#8B9399"/>
<path d="M29.0334 14.9724L37.4709 6.53491L38.4652 7.52913L30.0277 15.9666L29.0334 14.9724Z" fill="#8B9399"/>
</g>
<defs>
<clipPath id="clip0_5_2">
<rect width="50" height="50" fill="white"/>
</clipPath>
</defs>
</svg>
