<svg width="50" height="50" viewBox="0 0 50 50" fill="none" xmlns="http://www.w3.org/2000/svg">
<path d="M16.25 22.5H13.9062V17.5C13.9062 11.4062 18.9063 6.40625 25 6.40625C30.625 6.40625 35.3125 10.5469 36.0156 16.0938L33.75 16.4062C33.2031 12.0312 29.4531 8.75 25 8.75C20.1563 8.75 16.25 12.6562 16.25 17.5V22.5Z" fill="#8B9399"/>
<path d="M34.9219 43.5938H15C12.9688 43.5938 11.25 41.9531 11.25 39.8438V24.9219C11.25 22.8906 12.8906 21.1719 15 21.1719H34.9219C36.9531 21.1719 38.6719 22.8125 38.6719 24.9219V39.8438C38.6719 41.9531 37.0312 43.5938 34.9219 43.5938ZM15.0781 23.75C14.375 23.75 13.8281 24.2969 13.8281 25V39.9219C13.8281 40.625 14.375 41.1719 15.0781 41.1719H35C35.7031 41.1719 36.25 40.625 36.25 39.9219V25C36.25 24.2969 35.7031 23.75 35 23.75H15.0781Z" fill="#8B9399"/>
<path d="M27.5 28.6719C27.5 30.0781 26.4063 31.1719 25 31.1719C23.5938 31.1719 22.5 30.0781 22.5 28.6719C22.5 27.2656 23.5938 26.1719 25 26.1719C26.4063 26.1719 27.5 27.3438 27.5 28.6719Z" fill="#8B9399"/>
<path d="M25.625 28.6719H24.375L23.125 36.1719H26.875L25.625 28.6719Z" fill="#8B9399"/>
</svg>
