<svg width="136" height="114" viewBox="0 0 136 114" fill="none" xmlns="http://www.w3.org/2000/svg">
<path d="M28.5917 0.382202C14.9472 2.62439 4.58392 12.1674 1.22064 25.6478C-2.68952 41.3431 2.72454 56.765 18.4745 74.6205C29.248 86.8431 46.5019 100.706 64.5761 111.644L68.0761 113.777L71.1386 111.917C75.6503 109.21 83.2519 104.206 87.6269 101.062C112.346 83.2338 128.588 64.7767 134.002 48.3705C135.643 43.3392 135.998 41.015 135.998 35.5189C135.998 28.4916 134.986 23.9252 132.17 18.2924C124.432 2.8158 106.85 -3.77405 89.0488 2.15955C82.5956 4.3197 76.58 8.03845 69.8808 14.0267L68.0761 15.6127L65.5605 13.3705C57.9589 6.58923 50.5214 2.62439 42.0449 0.765015C38.6269 0.0267334 31.9277 -0.164673 28.5917 0.382202ZM79.287 35.2455V46.4564H90.6347H101.982V57.8041V69.1517L90.7167 69.2064L79.4238 69.2885L79.3417 80.5541L79.287 91.847H68.0761H56.8652L56.8105 80.5541L56.7284 69.2885L45.4628 69.2064L34.1699 69.1517V57.8041V46.4564H45.5175H56.8652V35.2455V24.0345H68.0761H79.287V35.2455Z" fill="#0562A7"/>
</svg>
