<svg width="43" height="40" viewBox="0 0 43 40" fill="none" xmlns="http://www.w3.org/2000/svg">
<path d="M11.1089 16.6667C9.20616 16.6667 7.64941 18.1667 7.64941 20C7.64941 21.8333 9.20616 23.3333 11.1089 23.3333C13.0116 23.3333 14.5683 21.8333 14.5683 20C14.5683 18.1667 13.0116 16.6667 11.1089 16.6667ZM31.8655 16.6667C29.9628 16.6667 28.4061 18.1667 28.4061 20C28.4061 21.8333 29.9628 23.3333 31.8655 23.3333C33.7682 23.3333 35.325 21.8333 35.325 20C35.325 18.1667 33.7682 16.6667 31.8655 16.6667ZM21.4872 16.6667C19.5845 16.6667 18.0278 18.1667 18.0278 20C18.0278 21.8333 19.5845 23.3333 21.4872 23.3333C23.3899 23.3333 24.9466 21.8333 24.9466 20C24.9466 18.1667 23.3899 16.6667 21.4872 16.6667Z" fill="#8B9399"/>
</svg>
