<svg width="44" height="44" viewBox="0 0 44 44" fill="none" xmlns="http://www.w3.org/2000/svg">
<path d="M32.631 43.5879C30.8565 43.5886 29.1127 43.1256 27.5723 42.2448L27.3551 42.1224C17.3399 36.3934 8.96099 28.192 3.01889 18.3017L1.88613 16.4138C0.725943 14.4837 0.245184 12.2208 0.520469 9.98568C0.795754 7.75059 1.81124 5.67196 3.40509 4.08104L5.66199 1.82415C7.55854 -0.0724045 10.643 -0.0724045 12.5379 1.82415L17.5103 6.79656C18.2586 7.54843 18.7415 8.52369 18.8859 9.57462C19.0302 10.6256 18.8281 11.6949 18.3103 12.6207L16.4413 15.9397C16.402 16.0095 16.3867 16.0903 16.3976 16.1696C16.4084 16.249 16.445 16.3226 16.5016 16.3793L27.5723 27.45C27.6299 27.5064 27.7042 27.5426 27.7841 27.5532C27.864 27.5638 27.9452 27.5481 28.0154 27.5086L31.3292 25.6414L31.331 25.6397C32.2569 25.1223 33.3261 24.9206 34.3769 25.0649C35.4277 25.2093 36.4029 25.6918 37.1551 26.4397L42.1292 31.4155C44.0258 33.3121 44.0258 36.3966 42.1292 38.2914L39.7723 40.6466C38.8337 41.5821 37.7198 42.3234 36.4944 42.8281C35.2691 43.3329 33.9562 43.591 32.631 43.5879ZM9.09992 3.85001C8.73785 3.85001 8.37578 3.98794 8.09992 4.2638L5.84302 6.51897C4.79401 7.56611 4.12564 8.93421 3.94441 10.4053C3.76318 11.8764 4.07952 13.3658 4.84302 14.6362L5.97578 16.5241C11.6122 25.9065 19.5601 33.6869 29.0603 39.1224L29.2775 39.2448C31.9085 40.75 35.2189 40.3241 37.3327 38.2069L39.6896 35.8517C39.8209 35.7204 39.9252 35.5645 39.9963 35.393C40.0674 35.2214 40.104 35.0375 40.104 34.8517C40.104 34.666 40.0674 34.4821 39.9963 34.3105C39.9252 34.1389 39.8209 33.983 39.6896 33.8517L34.7154 28.8759C34.4965 28.6583 34.2126 28.518 33.9067 28.4763C33.6009 28.4346 33.2898 28.4938 33.0206 28.6448L29.7068 30.5121C28.9802 30.9189 28.1408 31.0778 27.3158 30.9649C26.4908 30.852 25.725 30.4733 25.1344 29.8862L14.0637 18.8155C13.476 18.2257 13.0969 17.4601 12.9839 16.6352C12.871 15.8102 13.0303 14.971 13.4379 14.2448L15.3068 10.9276C15.457 10.6583 15.5155 10.3476 15.4735 10.0421C15.4315 9.73671 15.2913 9.45323 15.0741 9.23449L10.0999 4.2638C9.96869 4.13238 9.8128 4.02818 9.64119 3.95717C9.46958 3.88616 9.28564 3.84974 9.09992 3.85001Z" fill="#8B9399"/>
</svg>
