<svg width="30" height="30" viewBox="0 0 30 30" fill="none" xmlns="http://www.w3.org/2000/svg">
<path d="M4.5301 18.75C6.26102 20.4834 8.56606 21.5239 11.011 21.6757C13.4559 21.8274 15.8719 21.0798 17.8039 19.5738L24.4514 26.2213C24.6871 26.449 25.0029 26.575 25.3306 26.5721C25.6583 26.5693 25.9719 26.4378 26.2036 26.206C26.4354 25.9743 26.5668 25.6608 26.5697 25.333C26.5725 25.0053 26.4466 24.6895 26.2189 24.4538L19.5714 17.8063C21.1442 15.7877 21.8879 13.2452 21.6506 10.6972C21.4133 8.14925 20.213 5.78775 18.2945 4.09434C16.3759 2.40092 13.8836 1.50315 11.3259 1.58411C8.76822 1.66506 6.33771 2.71865 4.5301 4.53001C3.5961 5.46354 2.85518 6.57194 2.34968 7.7919C1.84417 9.01186 1.58398 10.3195 1.58398 11.64C1.58398 12.9606 1.84417 14.2682 2.34968 15.4881C2.85518 16.7081 3.5961 17.8165 4.5301 18.75ZM6.2976 6.30001C7.53332 5.06432 9.15926 4.29531 10.8984 4.12401C12.6375 3.9527 14.3822 4.3897 15.8353 5.36054C17.2884 6.33138 18.3599 7.77601 18.8672 9.44828C19.3746 11.1206 19.2865 12.917 18.6178 14.5316C17.9492 16.1462 16.7414 17.4789 15.2003 18.3029C13.6591 19.1268 11.88 19.3909 10.166 19.0501C8.452 18.7094 6.90916 17.7849 5.80035 16.4342C4.69154 15.0835 4.08537 13.3901 4.0851 11.6425C4.08167 10.6495 4.27548 9.66565 4.65529 8.74811C5.03509 7.83057 5.59333 6.9976 6.2976 6.29751V6.30001Z" fill="#8B9399"/>
</svg>
