<svg width="34" height="34" viewBox="0 0 34 34" fill="none" xmlns="http://www.w3.org/2000/svg">
<path d="M16.9503 18.9802C21.9503 18.9802 25.9602 14.9208 25.9602 9.97029C25.9602 5.0198 21.9503 0.910889 16.9503 0.910889C11.9503 0.910889 7.94043 4.97029 7.94043 9.92079C7.94043 14.8713 11.9503 18.9802 16.9503 18.9802ZM16.9503 3.28713C20.6137 3.28713 23.584 6.25742 23.584 9.92079C23.584 13.5842 20.6137 16.5545 16.9503 16.5545C13.287 16.5545 10.3167 13.6337 10.3167 9.97029C10.3167 6.30693 13.287 3.28713 16.9503 3.28713ZM1.30677 33.0891H32.6929C33.3365 33.0891 33.881 32.5446 33.881 31.901C33.881 25.6634 28.782 20.5644 22.5444 20.5644H11.4553C5.21766 20.5644 0.118652 25.6634 0.118652 31.901C0.118652 32.5446 0.663207 33.0891 1.30677 33.0891ZM11.4553 22.9406H22.5444C27.0989 22.9406 30.8117 26.3069 31.4058 30.7129H2.5939C3.18796 26.3069 6.90083 22.9406 11.4553 22.9406Z" fill="black" fill-opacity="0.4"/>
</svg>
