<svg width="50" height="50" viewBox="0 0 50 50" fill="none" xmlns="http://www.w3.org/2000/svg">
<path d="M24.9505 26.9802C29.9505 26.9802 33.9604 22.9208 33.9604 17.9703C33.9604 13.0198 29.9505 8.91089 24.9505 8.91089C19.9505 8.91089 15.9406 12.9703 15.9406 17.9208C15.9406 22.8713 19.9505 26.9802 24.9505 26.9802ZM24.9505 11.2871C28.6139 11.2871 31.5842 14.2574 31.5842 17.9208C31.5842 21.5842 28.6139 24.5545 24.9505 24.5545C21.2871 24.5545 18.3168 21.6337 18.3168 17.9703C18.3168 14.3069 21.2871 11.2871 24.9505 11.2871ZM9.30692 41.0891H40.6931C41.3366 41.0891 41.8812 40.5446 41.8812 39.901C41.8812 33.6634 36.7822 28.5644 30.5445 28.5644H19.4554C13.2178 28.5644 8.1188 33.6634 8.1188 39.901C8.1188 40.5446 8.66336 41.0891 9.30692 41.0891ZM19.4554 30.9406H30.5445C35.099 30.9406 38.8119 34.3069 39.4059 38.7129H10.5941C11.1881 34.3069 14.901 30.9406 19.4554 30.9406Z" fill="black" fill-opacity="0.4"/>
</svg>
